<?xml version="1.0" encoding="UTF-8"?>
<svg version="1.1" xmlns="http://www.w3.org/2000/svg" width="96" height="96">
<path d="M0 0 C28.38 0 56.76 0 86 0 C85.14016056 16.33694937 84.02284415 32.60228817 82.63574219 48.89404297 C82.37330295 51.99245794 82.12418744 55.09154237 81.88574219 58.19189453 C81.59402267 61.9828572 81.2795513 65.77127811 80.94853973 69.55900574 C80.82730433 70.99047853 80.7141122 72.42265694 80.60926056 73.85542297 C80.4622883 75.84220876 80.2831675 77.82653781 80.10253906 79.81054688 C79.96383392 81.49996399 79.96383392 81.49996399 79.82232666 83.22351074 C79 86 79 86 76.6058197 87.82539368 C71.68442809 90.04377345 66.51525917 91.29447504 61.3125 92.6875 C60.17876953 93.00783203 59.04503906 93.32816406 57.87695312 93.65820312 C45.66201091 96.96010969 37.12119299 96.20467283 24.96533203 92.69189453 C22.97957695 92.11910903 20.98868271 91.56801732 18.99609375 91.01953125 C9.27873884 88.27873884 9.27873884 88.27873884 7 86 C6.60727094 83.55804389 6.33230271 81.19905015 6.13037109 78.73974609 C6.06180405 77.99152588 5.993237 77.24330566 5.92259216 76.47241211 C5.69742422 73.9901201 5.48526963 71.50690035 5.2734375 69.0234375 C5.12004039 67.29662063 4.96594747 65.56986545 4.81118774 63.84317017 C4.48806029 60.21703495 4.17091763 56.59044355 3.85839844 52.96337891 C3.4589818 48.32921395 3.0487344 43.6960939 2.63443565 39.06323814 C2.31571439 35.4928703 2.00088429 31.92216832 1.687397 28.35133743 C1.53742711 26.64415632 1.38671847 24.93703992 1.23524094 23.22999191 C1.02347688 20.83250071 0.81647341 18.43464496 0.61083984 16.03662109 C0.54852676 15.33916779 0.48621368 14.64171448 0.42201233 13.92312622 C0.02652582 9.23161723 0 4.74554002 0 0 Z " fill="#264DE1" transform="translate(5,0)"/>
<path d="M0 0 C17.16 0 34.32 0 52 0 C52 11.25 52 11.25 51.6328125 15.17431641 C51.55272949 16.05447418 51.47264648 16.93463196 51.39013672 17.84146118 C51.3026416 18.75229462 51.21514648 19.66312805 51.125 20.6015625 C50.99182373 22.04527725 50.99182373 22.04527725 50.85595703 23.51815796 C50.57491686 26.55418827 50.28757099 29.58958206 50 32.625 C49.80687219 34.69917973 49.61416 36.77339821 49.421875 38.84765625 C48.95271594 43.89889771 48.47790571 48.94957888 48 54 C45.1700421 54.8465686 42.33692438 55.67738086 39.5 56.5 C38.70851562 56.73847656 37.91703125 56.97695312 37.1015625 57.22265625 C30.33173695 59.16481932 24.18209083 59.93590907 17.28125 57.90625 C16.49492188 57.68066406 15.70859375 57.45507812 14.8984375 57.22265625 C14.10695313 56.98417969 13.31546875 56.74570313 12.5 56.5 C11.67757812 56.26152344 10.85515625 56.02304688 10.0078125 55.77734375 C8.00242618 55.19438261 6.00079525 54.59852849 4 54 C3.22563406 48.24408312 2.90921821 42.81003454 3 37 C6.63 37 10.26 37 14 37 C14 39.97 14 42.94 14 46 C22.69716397 47.89483667 28.64765351 48.24120908 37 45 C37.66 40.71 38.32 36.42 39 32 C26.79 32 14.58 32 2 32 C1.67 28.37 1.34 24.74 1 21 C13.87 21 26.74 21 40 21 C40.33 17.37 40.66 13.74 41 10 C27.47 10 13.94 10 0 10 C0 6.7 0 3.4 0 0 Z " fill="#F8FCFE" transform="translate(22,18)"/>
<path d="M0 0 C11.22 0 22.44 0 34 0 C33.54804622 15.54720993 32.54201977 30.81137096 30.75390625 46.2578125 C30.24951569 50.62419719 29.815003 54.98574282 29.46484375 59.3671875 C29.34484009 60.83236816 29.34484009 60.83236816 29.22241211 62.32714844 C29.07793154 64.14465367 28.94402277 65.96304144 28.82250977 67.78222656 C28.65196181 69.86590518 28.33889067 71.93700307 28 74 C24.59363053 76.27091298 21.50162743 76.88476129 17.5625 77.625 C16.55993164 77.82609375 16.55993164 77.82609375 15.53710938 78.03125 C12.26683498 78.66650647 9.34797714 79 6 79 C6 79.66 6 80.32 6 81 C4.02 81 2.04 81 0 81 C-0.33 77.37 -0.66 73.74 -1 70 C2.08179742 69.16059992 5.16521375 68.32828078 8.25 67.5 C9.55904297 67.14228516 9.55904297 67.14228516 10.89453125 66.77734375 C11.73886719 66.55175781 12.58320312 66.32617188 13.453125 66.09375 C14.61569824 65.77954102 14.61569824 65.77954102 15.80175781 65.45898438 C18 65 18 65 22 65 C21.97679687 64.38608398 21.95359375 63.77216797 21.9296875 63.13964844 C21.71922489 52.43987944 22.93420923 41.88323661 24 31.25 C24.66 24.5675 25.32 17.885 26 11 C8.84 11 -8.32 11 -26 11 C-26 12.65 -26 14.3 -26 16 C-26.33 16 -26.66 16 -27 16 C-27 14.02 -27 12.04 -27 10 C-18.09 10 -9.18 10 0 10 C0 6.7 0 3.4 0 0 Z " fill="#3067ED" transform="translate(48,7)"/>
<path d="M0 0 C3.63 0 7.26 0 11 0 C11 2.97 11 5.94 11 9 C11.69867188 9.12117188 12.39734375 9.24234375 13.1171875 9.3671875 C14.02726562 9.53476563 14.93734375 9.70234375 15.875 9.875 C16.77992187 10.03742188 17.68484375 10.19984375 18.6171875 10.3671875 C21 11 21 11 23 13 C23.26991906 15.68839385 23.08737357 18.29141936 23 21 C24.32 21.33 25.64 21.66 27 22 C20.67996284 22.28990996 15.53501876 21.31836884 9.5 19.5 C8.26636719 19.14228516 8.26636719 19.14228516 7.0078125 18.77734375 C5.00242618 18.19438261 3.00079525 17.59852849 1 17 C0.22563406 11.24408312 -0.09078179 5.81003454 0 0 Z " fill="#E7E8EE" transform="translate(25,55)"/>
<path d="M0 0 C12.87 0 25.74 0 39 0 C39 0.33 39 0.66 39 1 C34.38 1 29.76 1 25 1 C25 3.97 25 6.94 25 10 C29.29 10 33.58 10 38 10 C38 10.33 38 10.66 38 11 C25.79 11 13.58 11 1 11 C0.67 7.37 0.34 3.74 0 0 Z " fill="#D9E1F2" transform="translate(23,39)"/>
<path d="M0 0 C8.58 0 17.16 0 26 0 C26 3.3 26 6.6 26 10 C17.42 10 8.84 10 0 10 C0 6.7 0 3.4 0 0 Z " fill="#E7E9F0" transform="translate(22,18)"/>
<path d="M0 0 C4.29 0 8.58 0 13 0 C12.67 4.29 12.34 8.58 12 13 C2.76814216 16.66090914 -2.51108371 17.31924542 -12 14 C-11.67 12.68 -11.34 11.36 -11 10 C-11 10.99 -11 11.98 -11 13 C-8.36 13 -5.72 13 -3 13 C-3 13.66 -3 14.32 -3 15 C-2.34 15 -1.68 15 -1 15 C-0.67 10.05 -0.34 5.1 0 0 Z " fill="#3068EA" transform="translate(48,50)"/>
<path d="M0 0 C13.53 0 27.06 0 41 0 C41 7 41 7 40 11 C27.46 11 14.92 11 2 11 C2 10.67 2 10.34 2 10 C13.88 9.67 25.76 9.34 38 9 C38.33 6.69 38.66 4.38 39 2 C38.505 2.33 38.01 2.66 37.5 3 C33.90909106 4.43636358 30.85543873 4.12851462 27 4 C26.67 3.01 26.34 2.02 26 1 C17.42 1 8.84 1 0 1 C0 0.67 0 0.34 0 0 Z " fill="#4771DC" transform="translate(22,28)"/>
<path d="M0 0 C0.99 0 1.98 0 3 0 C2.67 2.31 2.34 4.62 2 7 C-1.96 7 -5.92 7 -10 7 C-10 5.02 -10 3.04 -10 1 C-9.36191406 1.01160156 -8.72382812 1.02320312 -8.06640625 1.03515625 C-7.24011719 1.04417969 -6.41382813 1.05320312 -5.5625 1.0625 C-4.32693359 1.07990234 -4.32693359 1.07990234 -3.06640625 1.09765625 C-1.00836062 1.23267348 -1.00836062 1.23267348 0 0 Z " fill="#2A63F0" transform="translate(58,30)"/>
<path d="M0 0 C3.63 0 7.26 0 11 0 C11 2.97 11 5.94 11 9 C10.67 9 10.34 9 10 9 C9.67 6.69 9.34 4.38 9 2 C6.69 2 4.38 2 2 2 C2 6.62 2 11.24 2 16 C3.65 16 5.3 16 7 16 C7 16.66 7 17.32 7 18 C5.02 17.67 3.04 17.34 1 17 C0.16514796 11.26039225 -0.09063407 5.80058027 0 0 Z " fill="#C9D6FC" transform="translate(25,55)"/>
<path d="M0 0 C-6.2965496 4.13773259 -11.68288795 4.14347279 -19 4 C-19 3.67 -19 3.34 -19 3 C-16.586238 2.30048937 -14.16989766 1.61516081 -11.75 0.9375 C-11.06808594 0.73833984 -10.38617188 0.53917969 -9.68359375 0.33398438 C-3.41657839 -1.40009269 -3.41657839 -1.40009269 0 0 Z " fill="#4B7DDD" transform="translate(66,74)"/>
<path d="M0 0 C0.33 0.99 0.66 1.98 1 3 C3.64 3 6.28 3 9 3 C9 3.66 9 4.32 9 5 C10.32 5.66 11.64 6.32 13 7 C11.39536551 6.68991116 9.79130769 6.37683713 8.1875 6.0625 C7.29417969 5.88847656 6.40085937 5.71445313 5.48046875 5.53515625 C3 5 3 5 0 4 C0 2.68 0 1.36 0 0 Z " fill="#536ECF" transform="translate(36,60)"/>
<path d="M0 0 C2.97 0.495 2.97 0.495 6 1 C5.25 2.9375 5.25 2.9375 4 5 C1.875 5.75 1.875 5.75 0 6 C0.66 4.68 1.32 3.36 2 2 C1.34 1.34 0.68 0.68 0 0 Z " fill="#E2E5F7" transform="translate(40,65)"/>
</svg>
