<?xml version="1.0" encoding="UTF-8"?>
<svg version="1.1" xmlns="http://www.w3.org/2000/svg" width="96" height="96">
<path d="M0 0 C31.68 0 63.36 0 96 0 C96 31.68 96 63.36 96 96 C64.32 96 32.64 96 0 96 C0 64.32 0 32.64 0 0 Z " fill="#EFDB4F" transform="translate(0,0)"/>
<path d="M0 0 C3.81403632 1.5891818 5.75033707 3.56630395 8 7 C6.02 8.32 4.04 9.64 2 11 C1.46375 10.67 0.9275 10.34 0.375 10 C-2.5391061 8.77300796 -4.86867708 8.85766714 -8 9 C-8 10.65 -8 12.3 -8 14 C-6.95199219 14.51949219 -5.90398437 15.03898437 -4.82421875 15.57421875 C-3.44494656 16.27792905 -2.06606031 16.98239615 -0.6875 17.6875 C0.00279297 18.02716797 0.69308594 18.36683594 1.40429688 18.71679688 C5.54753299 20.85846965 8.13796246 22.51576727 10 27 C10.73183355 31.19010583 10.42194665 34.92169189 8.875 38.875 C5.64760428 42.53271515 2.85119249 43.75895931 -2 44.390625 C-8.92612388 44.74334427 -13.27272977 44.14610177 -18.609375 39.60546875 C-20 38 -20 38 -21 35 C-15.25 31 -15.25 31 -13 31 C-12.46375 31.66 -11.9275 32.32 -11.375 33 C-7.8650263 35.95576733 -5.50191867 35.36900973 -1 35 C0.29633621 33.93354885 0.29633621 33.93354885 0.0625 31.4375 C0.041875 30.633125 0.02125 29.82875 0 29 C-0.96421875 28.56429687 -1.9284375 28.12859375 -2.921875 27.6796875 C-4.19833009 27.07900275 -5.4743491 26.4773907 -6.75 25.875 C-7.38421875 25.59140625 -8.0184375 25.3078125 -8.671875 25.015625 C-13.22916443 22.83192381 -15.60012764 20.61012517 -18 16 C-18.91696928 12.20564437 -18.88855799 8.57382966 -16.94140625 5.125 C-12.06403544 -0.89573074 -7.30979652 -0.5924003 0 0 Z " fill="#373628" transform="translate(78,44)"/>
<path d="M0 0 C2.97 0 5.94 0 9 0 C9.09922625 5.01703179 9.17163587 10.03348652 9.21972656 15.05126953 C9.23978369 16.75644894 9.26703657 18.46156006 9.30175781 20.16650391 C9.35053861 22.62419524 9.37302719 25.08097366 9.390625 27.5390625 C9.41127014 28.29555084 9.43191528 29.05203918 9.45318604 29.83145142 C9.45535631 35.0056131 8.38233849 37.87435105 5 42 C0.60036741 45.10667934 -4.84975686 44.61117212 -10 44 C-14.0322912 42.01922537 -16.46698025 40.29245529 -18 36 C-15.1875 33.9375 -15.1875 33.9375 -12 32 C-9 33 -9 33 -8 35 C-6.00045254 35.04254356 -3.99958364 35.04080783 -2 35 C-0.02170928 33.02170928 -0.74496068 29.17672973 -0.68359375 26.46484375 C-0.66281265 25.71159317 -0.64203156 24.95834259 -0.62062073 24.18226624 C-0.55504575 21.7674401 -0.49620379 19.35250202 -0.4375 16.9375 C-0.3943223 15.30402471 -0.35070827 13.6705609 -0.30664062 12.03710938 C-0.19935638 8.02485536 -0.09811179 4.01248836 0 0 Z " fill="#373526" transform="translate(43,44)"/>
<path d="M0 0 C0.46148437 0.30292969 0.92296875 0.60585938 1.3984375 0.91796875 C6.74852175 4.35428769 12.2737871 7.24249993 18 10 C18.125 12.375 18.125 12.375 18 15 C16 17 16 17 12.125 17.3125 C9.26033786 17.2447898 8.07362374 17.04049306 5.5 15.625 C4 14 4 14 4 12 C3.01 12.33 2.02 12.66 1 13 C1 12.34 1 11.68 1 11 C0.34 11 -0.32 11 -1 11 C-0.9278125 10.37351562 -0.855625 9.74703125 -0.78125 9.1015625 C-0.6884375 8.28429687 -0.595625 7.46703125 -0.5 6.625 C-0.4071875 5.81289062 -0.314375 5.00078125 -0.21875 4.1640625 C0.03352351 2.03087175 0.03352351 2.03087175 0 0 Z " fill="#E9D658" transform="translate(61,63)"/>
<path d="M0 0 C4.2964965 0.43649666 8.00497156 0.97481918 11.0625 4.125 C11.371875 4.74375 11.68125 5.3625 12 6 C9.5625 8.1875 9.5625 8.1875 6 10 C2.7905 9.46247398 -0.04430272 8.3399161 -3 7 C-1.125 1.125 -1.125 1.125 0 0 Z " fill="#3E3B29" transform="translate(74,45)"/>
<path d="M0 0 C9.77272727 2.95454545 9.77272727 2.95454545 12.3125 7.1875 C12.539375 7.785625 12.76625 8.38375 13 9 C12.01 9.495 12.01 9.495 11 10 C10.9278125 9.37222656 10.855625 8.74445313 10.78125 8.09765625 C10.20825341 5.8072053 10.20825341 5.8072053 7.96875 5.05859375 C7.1540625 4.85363281 6.339375 4.64867188 5.5 4.4375 C3.03125 3.80859375 3.03125 3.80859375 1 3 C0.67 2.01 0.34 1.02 0 0 Z " fill="#3F3A1C" transform="translate(74,61)"/>
<path d="M0 0 C3.82097239 0.53069061 6.06171403 1.49701566 9 4 C8.67 5.65 8.34 7.3 8 9 C6.35 9.33 4.7 9.66 3 10 C4.32 8.68 5.64 7.36 7 6 C4.74259377 3.66475218 2.7194239 1.81294927 0 0 Z " fill="#D9CD61" transform="translate(78,44)"/>
<path d="M0 0 C0.99 0.33 1.98 0.66 3 1 C2.01 2.485 2.01 2.485 1 4 C0.75812349 6.74518321 0.75812349 6.74518321 0.875 9.6875 C0.89304688 10.68136719 0.91109375 11.67523438 0.9296875 12.69921875 C0.95289063 13.45847656 0.97609375 14.21773437 1 15 C0.34 15 -0.32 15 -1 15 C-1.02685412 12.68756208 -1.04632841 10.3750373 -1.0625 8.0625 C-1.07410156 6.77472656 -1.08570313 5.48695312 -1.09765625 4.16015625 C-1 1 -1 1 0 0 Z " fill="#D9CA5F" transform="translate(60,47)"/>
<path d="M0 0 C2.31 0 4.62 0 7 0 C6.67 0.66 6.34 1.32 6 2 C3.11788698 2.96070434 1.30149956 3.10581883 -1.6875 3.0625 C-2.89986328 3.04896484 -2.89986328 3.04896484 -4.13671875 3.03515625 C-5.05904297 3.01775391 -5.05904297 3.01775391 -6 3 C-6 2.67 -6 2.34 -6 2 C-4.02 2 -2.04 2 0 2 C0 1.34 0 0.68 0 0 Z " fill="#373419" transform="translate(76,85)"/>
<path d="M0 0 C0.66 1.32 1.32 2.64 2 4 C-0.64 4 -3.28 4 -6 4 C-6.33 4.99 -6.66 5.98 -7 7 C-7.33 6.01 -7.66 5.02 -8 4 C-2.25 0 -2.25 0 0 0 Z " fill="#493F16" transform="translate(65,75)"/>
<path d="M0 0 C0.185625 0.8971875 0.185625 0.8971875 0.375 1.8125 C0.95475985 4.26231348 0.95475985 4.26231348 3 7 C2.01 7 1.02 7 0 7 C-1.6875 4.5 -1.6875 4.5 -3 2 C-2.01 1.34 -1.02 0.68 0 0 Z " fill="#45411C" transform="translate(28,78)"/>
</svg>
